PathFileType	4	(X/Y/Z)	/home/abdul/Desktop/myosuite/custom_workspace/IK/output/S3_12_1.trc
DataRate	CameraRate	NumFrames	NumMarkers	Units	OrigDataRate	OrigDataStartFrame	OrigNumFrames
200.0	200.0	22	3	mm	200.0	99	786
Frame#	Time	V_Shoulder			V_Elbow			V_Wrist		
		X1	Y1	Z1	X2	Y2	Z2	X3	Y3	Z3

99	0.49	-133.2280619469437	638.8766831657238	305.571212122014	-320.11737795702686	496.9813508504314	9.727198478601279	-166.01899315327816	246.42009961452675	43.75899845016045
100	0.495	-133.1160278235128	638.5586110928506	305.67958029147013	-319.7709949762453	496.15193124809093	10.00555438982067	-164.35838706667516	246.38891068331216	43.457397148015346
101	0.5	-133.00085604820637	638.2375593430244	305.7910765816632	-319.42809440657317	495.32457697420205	10.291032186723143	-162.73060657234305	246.35132235596853	43.151701578441
102	0.505	-132.882593904872	637.9135714382674	305.90572131312325	-319.089070988271	494.49970858844387	10.583695696987236	-161.1362136292267	246.30724373890698	42.842722094911586
103	0.51	-132.76129294627057	637.5866925331552	306.02353155047894	-318.754287759541	493.6777167688576	10.883593769001617	-159.57569968179246	246.25656369409032	42.531259152076025
104	0.515	-132.63700886782433	637.2569694139603	306.144520960554	-318.42407534761713	492.8589615970352	11.19076015501882	-158.0494860858912	246.19915078942307	42.21810037104812
105	0.52	-132.50980137314303	636.9244504945402	306.26869967764947	-318.0987314280203	492.0437719846743	11.505213461156709	-156.55792470839012	246.1348534065252	41.904017729340154
106	0.525	-132.37973403177304	636.5891858092253	306.39607417654474	-317.7785203519569	491.2324452433043	11.826957162977273	-155.10129869538343	246.06350000606994	41.5897648882874
107	0.53	-132.2468741296333	636.2512270029891	306.5266471537204	-317.46367294094443	490.4252467983251	12.155979684992529	-153.67982340342644	245.98489954977967	41.276074669572196
108	0.535	-132.1112925126181	635.9106273192123	306.66041741726997	-317.1543864468796	489.6224100478329	12.492254542089874	-152.29364748789604	245.89884207709827	40.96365669114958
109	0.54	-131.9730634238604	635.5674415853765	306.7973797859374	-316.8508246749146	488.8241363660396	12.835740540536422	-150.94285414226036	245.80509943350654	40.65319517152099
110	0.545	-131.83226433516344	635.2217261970477	306.93752499767515	-316.55311826569505	488.03059525042056	13.18638203591575	-149.6274624817414	245.70342614642095	40.345346909911065
111	0.55	-131.6889757731191	634.8735391005235	307.0808396280857	-316.26136513273156	487.24192461106276	13.544109245072915	-148.34742906458143	245.59356044363153	40.04073944849319
112	0.555	-131.54328114044168	634.5229397745408	307.2273060190657	-315.9756310499358	486.45823120002956	13.908838608896241	-147.10264954387208	245.4752254082913	39.739969421398534
113	0.56	-131.395266533053	634.1699892114444	307.3769022179345	-315.6959503836559	485.6795911779128	14.280473202548155	-145.89296044267982	245.34813026358435	39.44360109384557
114	0.565	-131.24502055346238	633.8147498982349	307.5296019272887	-315.4223269628913	484.90605081411366	14.65890318957351	-144.7181410449999	245.21197177936904	39.15216509335995
115	0.57	-131.0926341209894	633.4572857979111	307.68537446578017	-315.15473508077184	484.1376273167819	15.044006316162381	-143.57791539489466	245.06643579233085	38.866157333731024
116	0.575	-130.938200279379	633.0976623315318	307.8441847399774	-314.89312061983054	483.3743097877556	15.435648441726231	-142.4719543960226	244.9111988304874	38.586038131087015
117	0.58	-130.78181400236193	632.7359463614124	308.0059932274251	-314.637402293111	482.61606029727943	15.833684101861053	-141.39987800364014	244.74592983227132	38.31223151027639
118	0.585	-130.62357199771168	632.3722061758757	308.17075597097823	-314.3874729927096	481.8628150727428	16.237957099718386	-140.36125750105975	244.57029194987894	38.04512469863167
119	0.59	-130.4635725103473	632.0065114759573	308.33842458444286	-314.1432012369744	481.11448579517537	16.64830112178466	-139.3556178524761	244.38394442611758	37.78506780317173
120	0.595	-130.30191512502708	631.6389333644638	308.5089462695182	-313.9044327072626	480.3709609967663	17.064540374079904	-138.3824401240246	244.18654453361296	37.53237366637868
